# xmcd
#
# Track frame offsets: 
#        183
#        17903
#        36208
#        55973
#        74225
#        94068
#        113338
#        134845
#        151638
#        168340
#        185600
#
# Disc length: 2860 seconds
#
# Revision: 3
# Processed by: cddbd v1.5.2PL0 Copyright (c) Steve Scherf et al.
# Submitted via: ExactAudioCopyFreeDBPlugin 1.0
#
DISCID=960b2a0b
DTITLE=Bobby Womack - So Many Rivers
DYEAR=1985
DGENRE=Soul
TTITLE0=I Wish He Didn't Trust Me So Much
TTITLE1=So Baby, Don't Leave Home Without It
TTITLE2=So Many Rivers
TTITLE3=Got to Be With You Tonight
TTITLE4=Gypsy Woman
TTITLE5=Whatever Happened to the Times
TTITLE6=Let Me Kiss it Where it Hurts
TTITLE7=Only Surviver
TTITLE8=That's Where it Is
TTITLE9=Check it Out
TTITLE10=Whatever Happened to the Times (extended mix)
EXTD=
EXTT0=
EXTT1=
EXTT2=
EXTT3=
EXTT4=
EXTT5=
EXTT6=
EXTT7=
EXTT8=
EXTT9=
EXTT10=
PLAYORDER=
